<svg width="16" height="15" viewBox="0 0 16 15" fill="none" xmlns="http://www.w3.org/2000/svg">
<path d="M6.53617 2.07141L5.0195 3.57141H2.11628V12.5714H14.2496V3.57141H11.3464L9.82974 2.07141H6.53617ZM5.90794 0.571411H10.4579L11.9746 2.07141H15.0079C15.4268 2.07141 15.7663 2.4072 15.7663 2.82141V13.3214C15.7663 13.7356 15.4268 14.0714 15.0079 14.0714H1.35794C0.93913 14.0714 0.599609 13.7356 0.599609 13.3214V2.82141C0.599609 2.4072 0.93913 2.07141 1.35794 2.07141H4.39128L5.90794 0.571411ZM8.18294 11.8214C5.87945 11.8214 4.01211 9.97461 4.01211 7.69641C4.01211 5.41823 5.87945 3.57141 8.18294 3.57141C10.4865 3.57141 12.3538 5.41823 12.3538 7.69641C12.3538 9.97461 10.4865 11.8214 8.18294 11.8214ZM8.18294 10.3214C9.6488 10.3214 10.8371 9.14616 10.8371 7.69641C10.8371 6.24666 9.6488 5.07141 8.18294 5.07141C6.71709 5.07141 5.52878 6.24666 5.52878 7.69641C5.52878 9.14616 6.71709 10.3214 8.18294 10.3214Z" fill="#594170"/>
</svg>
