<svg width="16" height="16" viewBox="0 0 16 16" fill="none" xmlns="http://www.w3.org/2000/svg">
<path d="M5.11111 2.55556H3.55556C2.69645 2.55556 2 3.252 2 4.11111V13.4444C2 14.3036 2.69645 15 3.55556 15H11.3333C12.1924 15 12.8889 14.3036 12.8889 13.4444V4.11111C12.8889 3.252 12.1924 2.55556 11.3333 2.55556H9.77778M5.11111 2.55556C5.11111 3.41467 5.80756 4.11111 6.66667 4.11111H8.22222C9.08133 4.11111 9.77778 3.41467 9.77778 2.55556M5.11111 2.55556C5.11111 1.69645 5.80756 1 6.66667 1H8.22222C9.08133 1 9.77778 1.69645 9.77778 2.55556M7.44444 8H9.77778M7.44444 11.1111H9.77778M5.11111 8H5.11889M5.11111 11.1111H5.11889" stroke="#594170" stroke-width="1.5" stroke-linecap="round"/>
</svg>
