<svg width="24" height="24" viewBox="0 0 24 24" fill="none" xmlns="http://www.w3.org/2000/svg">
<path d="M6.0307 17.7468V17.7472L6.04002 17.7464L8.49305 17.5166L8.49359 17.5165C8.86036 17.4802 9.20016 17.3164 9.4592 17.0531L18.7187 7.64034C19.1723 7.17926 19.4256 6.56691 19.4256 5.91915C19.4256 5.27139 19.1723 4.65904 18.7187 4.19796L18.1243 3.5937C17.2144 2.66877 15.6349 2.66877 14.725 3.5937L13.5445 4.7937L5.47383 12.998C5.21511 13.261 5.05392 13.6061 5.02684 13.9791L4.80087 16.4718L4.80078 16.4729C4.7734 16.8162 4.89222 17.1505 5.12926 17.4007L5.12925 17.4007L5.13057 17.402C5.3496 17.6247 5.63454 17.7468 5.93861 17.7468H5.93862H5.93863H5.93864H5.93865H5.93867H5.93868H5.9387H5.93871H5.93873H5.93875H5.93877H5.9388H5.93882H5.93885H5.93888H5.93891H5.93894H5.93897H5.939H5.93904H5.93907H5.93911H5.93915H5.93919H5.93923H5.93927H5.93932H5.93936H5.93941H5.93946H5.93951H5.93956H5.93961H5.93967H5.93972H5.93978H5.93984H5.9399H5.93996H5.94002H5.94008H5.94015H5.94021H5.94028H5.94035H5.94042H5.94049H5.94056H5.94064H5.94071H5.94079H5.94087H5.94094H5.94103H5.94111H5.94119H5.94127H5.94136H5.94144H5.94153H5.94162H5.94171H5.9418H5.94189H5.94199H5.94208H5.94218H5.94228H5.94237H5.94247H5.94257H5.94268H5.94278H5.94288H5.94299H5.9431H5.9432H5.94331H5.94342H5.94353H5.94364H5.94376H5.94387H5.94399H5.9441H5.94422H5.94434H5.94446H5.94458H5.9447H5.94483H5.94495H5.94508H5.9452H5.94533H5.94546H5.94559H5.94572H5.94585H5.94598H5.94612H5.94625H5.94639H5.94652H5.94666H5.9468H5.94694H5.94708H5.94722H5.94736H5.94751H5.94765H5.9478H5.94795H5.94809H5.94824H5.94839H5.94854H5.94869H5.94884H5.949H5.94915H5.94931H5.94946H5.94962H5.94978H5.94994H5.95009H5.95026H5.95042H5.95058H5.95074H5.95091H5.95107H5.95124H5.9514H5.95157H5.95174H5.95191H5.95208H5.95225H5.95242H5.95259H5.95277H5.95294H5.95311H5.95329H5.95347H5.95364H5.95382H5.954H5.95418H5.95436H5.95454H5.95472H5.95491H5.95509H5.95527H5.95546H5.95564H5.95583H5.95602H5.9562H5.95639H5.95658H5.95677H5.95696H5.95715H5.95735H5.95754H5.95773H5.95793H5.95812H5.95832H5.95851H5.95871H5.95891H5.95911H5.9593H5.9595H5.9597H5.9599H5.96011H5.96031H5.96051H5.96071H5.96092H5.96112H5.96133H5.96153H5.96174H5.96194H5.96215H5.96236H5.96257H5.96278H5.96299H5.9632H5.96341H5.96362H5.96383H5.96404H5.96426H5.96447H5.96468H5.9649H5.96511H5.96533H5.96554H5.96576H5.96598H5.96619H5.96641H5.96663H5.96685H5.96707H5.96729H5.96751H5.96773H5.96795H5.96817H5.96839H5.96862H5.96884H5.96906H5.96929H5.96951H5.96973H5.96996H5.97018H5.97041H5.97064H5.97086H5.97109H5.97132H5.97154H5.97177H5.972H5.97223H5.97246H5.97269H5.97292H5.97315H5.97338H5.97361H5.97384H5.97407H5.9743H5.97453H5.97477H5.975H5.97523H5.97547H5.9757H5.97593H5.97617H5.9764H5.97664H5.97687H5.97711H5.97734H5.97758H5.97781H5.97805H5.97828H5.97852H5.97876H5.97899H5.97923H5.97947H5.97971H5.97994H5.98018H5.98042H5.98066H5.9809H5.98113H5.98137H5.98161H5.98185H5.98209H5.98233H5.98257H5.98281H5.98305H5.98329H5.98353H5.98377H5.98401H5.98425H5.98449H5.98473H5.98497H5.98521H5.98545H5.98569H5.98594H5.98618H5.98642H5.98666H5.9869H5.98714H5.98738H5.98762H5.98787H5.98811H5.98835H5.98859H5.98883H5.98907H5.98931H5.98956H5.9898H5.99004H5.99028H5.99052H5.99076H5.991H5.99125H5.99149H5.99173H5.99197H5.99221H5.99245H5.99269H5.99293H5.99317H5.99342H5.99366H5.9939H5.99414H5.99438H5.99462H5.99486H5.9951H5.99534H5.99558H5.99582H5.99606H5.9963H5.99654H5.99678H5.99702H5.99725H5.99749H5.99773H5.99797H5.99821H5.99845H5.99868H5.99892H5.99916H5.9994H5.99963H5.99987H6.00011H6.00034H6.00058H6.00082H6.00105H6.00129H6.00152H6.00176H6.00199H6.00223H6.00246H6.0027H6.00293H6.00316H6.0034H6.00363H6.00386H6.00409H6.00433H6.00456H6.00479H6.00502H6.00525H6.00548H6.00571H6.00594H6.00617H6.0064H6.00663H6.00686H6.00709H6.00731H6.00754H6.00777H6.00799H6.00822H6.00845H6.00867H6.0089H6.00912H6.00935H6.00957H6.00979H6.01002H6.01024H6.01046H6.01068H6.0109H6.01112H6.01134H6.01156H6.01178H6.012H6.01222H6.01244H6.01266H6.01287H6.01309H6.0133H6.01352H6.01374H6.01395H6.01416H6.01438H6.01459H6.0148H6.01501H6.01523H6.01544H6.01565H6.01586H6.01606H6.01627H6.01648H6.01669H6.0169H6.0171H6.01731H6.01751H6.01772H6.01792H6.01812H6.01833H6.01853H6.01873H6.01893H6.01913H6.01933H6.01953H6.01973H6.01993H6.02012H6.02032H6.02051H6.02071H6.0209H6.0211H6.02129H6.02148H6.02167H6.02186H6.02205H6.02224H6.02243H6.02262H6.02281H6.02299H6.02318H6.02336H6.02355H6.02373H6.02391H6.0241H6.02428H6.02446H6.02464H6.02482H6.02499H6.02517H6.02535H6.02552H6.0257H6.02587H6.02605H6.02622H6.02639H6.02656H6.02673H6.0269H6.02707H6.02724H6.0274H6.02757H6.02773H6.0279H6.02806H6.02822H6.02838H6.02855H6.02871H6.02886H6.02902H6.02918H6.02933H6.02949H6.02964H6.0298H6.02995H6.0301H6.03025H6.0304H6.03055H6.0307ZM17.0929 4.63462L17.0929 4.63463L17.0943 4.63609L17.6887 5.24034C17.8716 5.42624 17.9698 5.66502 17.9698 5.91915C17.9698 6.17452 17.8708 6.42056 17.6902 6.59646L17.6902 6.59644L17.6887 6.59796L17.0233 7.27443L15.0956 5.31489L15.7634 4.63609C15.9459 4.45054 16.1883 4.35106 16.4288 4.35106C16.6712 4.35106 16.9122 4.44326 17.0929 4.63462ZM6.50385 14.0489L6.50389 14.0488L14.0596 6.35966L15.9872 8.31915L8.43602 15.9953L8.43183 15.9981C8.42453 16.0029 8.41463 16.0091 8.4039 16.0152C8.39288 16.0215 8.38267 16.0267 8.3745 16.03C8.37196 16.031 8.37012 16.0317 8.36893 16.032L8.36565 16.0323L6.28336 16.2255L6.47355 14.1068L6.46875 14.1064H6.47395C6.47395 14.0906 6.48126 14.0718 6.50385 14.0489ZM20.3721 21.1C20.7721 21.1 21.1 20.7643 21.1 20.3617C21.1 19.9591 20.7721 19.6234 20.3721 19.6234H3.62791C3.22788 19.6234 2.9 19.9591 2.9 20.3617C2.9 20.7643 3.22788 21.1 3.62791 21.1H20.3721Z" fill="#594170" stroke="#594170" stroke-width="0.2"/>
</svg>
