<svg width="14" height="14" viewBox="0 0 14 14" fill="none" xmlns="http://www.w3.org/2000/svg">
<path fill-rule="evenodd" clip-rule="evenodd" d="M13.3996 7.0001C13.3996 8.69748 12.7253 10.3253 11.5251 11.5256C10.3249 12.7258 8.69699 13.4001 6.99961 13.4001C5.30222 13.4001 3.67436 12.7258 2.47413 11.5256C1.27389 10.3253 0.599609 8.69748 0.599609 7.0001C0.599609 5.30271 1.27389 3.67485 2.47413 2.47461C3.67436 1.27438 5.30222 0.600098 6.99961 0.600098C8.69699 0.600098 10.3249 1.27438 11.5251 2.47461C12.7253 3.67485 13.3996 5.30271 13.3996 7.0001ZM6.99961 4.6001C6.85905 4.59996 6.72093 4.63686 6.59917 4.70708C6.4774 4.7773 6.37629 4.87837 6.30601 5.0001C6.25526 5.0944 6.1861 5.17755 6.10262 5.24463C6.01914 5.3117 5.92304 5.36133 5.82002 5.39058C5.71701 5.41982 5.60916 5.42809 5.50289 5.41489C5.39662 5.40168 5.29408 5.36727 5.20136 5.31371C5.10863 5.26014 5.0276 5.1885 4.96307 5.10303C4.89855 5.01757 4.85184 4.92002 4.82571 4.81616C4.79959 4.71231 4.79458 4.60427 4.81098 4.49845C4.82738 4.39262 4.86487 4.29117 4.92121 4.2001C5.18538 3.74259 5.59314 3.38503 6.08123 3.18287C6.56932 2.98071 7.11048 2.94525 7.62078 3.08198C8.13108 3.21872 8.58201 3.52001 8.90363 3.93914C9.22525 4.35826 9.39959 4.87179 9.39961 5.4001C9.39975 5.89659 9.24596 6.38092 8.95942 6.78638C8.67287 7.19184 8.26767 7.49849 7.79961 7.6641V7.8001C7.79961 8.01227 7.71532 8.21575 7.56529 8.36578C7.41527 8.51581 7.21178 8.6001 6.99961 8.6001C6.78744 8.6001 6.58395 8.51581 6.43392 8.36578C6.28389 8.21575 6.19961 8.01227 6.19961 7.8001V7.0001C6.19961 6.78792 6.28389 6.58444 6.43392 6.43441C6.58395 6.28438 6.78744 6.2001 6.99961 6.2001C7.21178 6.2001 7.41527 6.11581 7.56529 5.96578C7.71532 5.81575 7.79961 5.61227 7.79961 5.4001C7.79961 5.18792 7.71532 4.98444 7.56529 4.83441C7.41527 4.68438 7.21178 4.6001 6.99961 4.6001ZM6.99961 11.0001C7.21178 11.0001 7.41527 10.9158 7.56529 10.7658C7.71532 10.6158 7.79961 10.4123 7.79961 10.2001C7.79961 9.98792 7.71532 9.78444 7.56529 9.63441C7.41527 9.48438 7.21178 9.4001 6.99961 9.4001C6.78744 9.4001 6.58395 9.48438 6.43392 9.63441C6.28389 9.78444 6.19961 9.98792 6.19961 10.2001C6.19961 10.4123 6.28389 10.6158 6.43392 10.7658C6.58395 10.9158 6.78744 11.0001 6.99961 11.0001Z" fill="#594170"/>
</svg>
