<svg width="17" height="18" viewBox="0 0 17 18" fill="none" xmlns="http://www.w3.org/2000/svg">
<path d="M1.75307 13.5052H7.64443V14.6639H6.44775C5.89169 14.6639 5.67804 15.205 6.02891 15.6316L7.78946 17.7885C8.01807 18.0705 8.39918 18.0705 8.63527 17.7885L10.3809 15.6316C10.7083 15.2124 10.5028 14.6639 9.96917 14.6639H8.75721V13.5052H14.6333C15.7997 13.5052 16.3864 12.9414 16.3864 11.7674V9.09247C16.3864 7.92636 15.7997 7.36249 14.6336 7.36249H8.75753V6.15053H14.6336C15.7997 6.15053 16.3864 5.57886 16.3864 4.41275V1.72998C16.3864 0.563869 15.7997 0 14.6336 0H1.75274C0.586632 0 0 0.563869 0 1.72998V4.41275C0 5.57886 0.586632 6.15053 1.75274 6.15053H7.6441V7.36217H1.75307C0.586957 7.36217 0.000325238 7.92636 0.000325238 9.09215V11.7674C0.000325238 12.9414 0.586957 13.5052 1.75307 13.5052ZM1.84444 4.99971C1.39504 4.99971 1.15115 4.7633 1.15115 4.2908V1.85973C1.15115 1.37943 1.39504 1.15083 1.84444 1.15083H14.5419C14.9916 1.15083 15.2355 1.37943 15.2355 1.85973V4.2908C15.2355 4.7633 14.9916 4.99971 14.5419 4.99971H1.84444ZM1.84444 12.3619C1.39504 12.3619 1.15115 12.1258 1.15115 11.653V9.2219C1.15115 8.74193 1.39504 8.513 1.84444 8.513H14.5419C14.9916 8.513 15.2355 8.74193 15.2355 9.2219V11.6533C15.2355 12.1258 14.9916 12.3622 14.5419 12.3622L1.84444 12.3619Z" fill="#594170"/>
</svg>
