<svg width="24" height="24" viewBox="0 0 24 24" fill="none" xmlns="http://www.w3.org/2000/svg">
<path d="M13.5 3.67709L12.9377 4.17339C12.948 4.18506 12.9587 4.19641 12.9697 4.20742L13.5 3.67709ZM20.3229 13.5L19.8266 12.9377C19.8149 12.948 19.8036 12.9587 19.7926 12.9697L20.3229 13.5ZM20.5 10.6771L21.0623 10.1808C21.052 10.1691 21.0413 10.1578 21.0303 10.1468L20.5 10.6771ZM10.6771 20.5L10.1468 21.0303C10.1578 21.0413 10.1691 21.052 10.1808 21.0623L10.6771 20.5ZM13.3229 20.5L13.8192 21.0623C13.8309 21.052 13.8422 21.0413 13.8532 21.0303L13.3229 20.5ZM3.67709 13.5L4.20742 12.9697L4.1909 12.9532L4.17339 12.9377L3.67709 13.5ZM7 6.25C6.58579 6.25 6.25 6.58579 6.25 7C6.25 7.41421 6.58579 7.75 7 7.75V6.25ZM7.01 7.75C7.42421 7.75 7.76 7.41421 7.76 7C7.76 6.58579 7.42421 6.25 7.01 6.25V7.75ZM3.75 7C3.75 5.20507 5.20507 3.75 7 3.75V2.25C4.37665 2.25 2.25 4.37665 2.25 7H3.75ZM3.75 12V7H2.25V12H3.75ZM7 3.75H12V2.25H7V3.75ZM12 3.75C12.3732 3.75 12.7076 3.91264 12.9377 4.17339L14.0623 3.18079C13.5595 2.61112 12.8215 2.25 12 2.25V3.75ZM20.25 12C20.25 12.3732 20.0874 12.7076 19.8266 12.9377L20.8192 14.0623C21.3889 13.5595 21.75 12.8215 21.75 12H20.25ZM19.9377 11.1734C20.1326 11.3942 20.25 11.6825 20.25 12H21.75C21.75 11.3031 21.4898 10.6651 21.0623 10.1808L19.9377 11.1734ZM12 20.25C11.6825 20.25 11.3942 20.1326 11.1734 19.9377L10.1808 21.0623C10.6651 21.4898 11.3031 21.75 12 21.75V20.25ZM12.8266 19.9377C12.6058 20.1326 12.3175 20.25 12 20.25V21.75C12.6969 21.75 13.3349 21.4898 13.8192 21.0623L12.8266 19.9377ZM4.17339 12.9377C3.91264 12.7076 3.75 12.3732 3.75 12H2.25C2.25 12.8215 2.61112 13.5595 3.18079 14.0623L4.17339 12.9377ZM12.9697 4.20742L19.9697 11.2074L21.0303 10.1468L14.0303 3.14676L12.9697 4.20742ZM11.2074 19.9697L4.20742 12.9697L3.14676 14.0303L10.1468 21.0303L11.2074 19.9697ZM19.7926 12.9697L12.7926 19.9697L13.8532 21.0303L20.8532 14.0303L19.7926 12.9697ZM7 7.75H7.01V6.25H7V7.75Z" fill="#594877"/>
</svg>
